<svg width="17" height="16" viewBox="0 0 17 16" fill="none" xmlns="http://www.w3.org/2000/svg">
<g clip-path="url(#clip0_55_220)">
<path d="M17.5166 6.55767C17.6157 7.09463 17.6651 7.63867 17.6642 8.18367C17.6642 10.6177 16.7399 12.6757 15.1312 14.0687H15.1334C13.7266 15.2917 11.7929 15.9997 9.5 15.9997C7.24566 15.9997 5.08365 15.1568 3.48959 13.6565C1.89553 12.1562 1 10.1214 1 7.99967C1 5.87794 1.89553 3.84311 3.48959 2.34282C5.08365 0.842528 7.24566 -0.000326606 9.5 -0.000326606C11.6101 -0.023585 13.6478 0.722506 15.1865 2.08167L12.7597 4.36567C11.8825 3.57865 10.7118 3.14766 9.5 3.16567C7.28256 3.16567 5.39875 4.57367 4.72725 6.46967C4.37121 7.46318 4.37121 8.53917 4.72725 9.53267H4.73044C5.40512 11.4257 7.28575 12.8337 9.50319 12.8337C10.6486 12.8337 11.6324 12.5577 12.3953 12.0697H12.3921C12.8351 11.7935 13.214 11.4357 13.506 11.0179C13.798 10.6 13.997 10.1309 14.0911 9.63867H9.5V6.55867L17.5166 6.55767Z" fill="white"/>
</g>
<defs>
<clipPath id="clip0_55_220">
<rect width="17" height="16" fill="white"/>
</clipPath>
</defs>
</svg>
